<?xml version="1.0" encoding="UTF-8" standalone="no"?>
<!-- Created with Inkscape (http://www.inkscape.org/) -->

<svg
   xmlns:dc="http://purl.org/dc/elements/1.1/"
   xmlns:cc="http://creativecommons.org/ns#"
   xmlns:rdf="http://www.w3.org/1999/02/22-rdf-syntax-ns#"
   xmlns:svg="http://www.w3.org/2000/svg"
   xmlns="http://www.w3.org/2000/svg"
   xmlns:sodipodi="http://sodipodi.sourceforge.net/DTD/sodipodi-0.dtd"
   xmlns:inkscape="http://www.inkscape.org/namespaces/inkscape"
   width="64"
   height="64"
   viewBox="0 0 64 64"
   version="1.1"
   id="svg9350"
   inkscape:version="0.92.3 (2405546, 2018-03-11)"
   sodipodi:docname="UI - Icons (Inkscape).svg">
  <defs
     id="defs9344" />
  <sodipodi:namedview
     id="base"
     pagecolor="#c0a0a0"
     bordercolor="#666666"
     borderopacity="1.0"
     inkscape:pageopacity="0"
     inkscape:pageshadow="2"
     inkscape:zoom="5.6568542"
     inkscape:cx="-41.551829"
     inkscape:cy="28.697188"
     inkscape:document-units="px"
     inkscape:current-layer="svg9350"
     showgrid="true"
     units="px"
     viewbox-width="64"
     viewbox-height="64"
     inkscape:window-width="1920"
     inkscape:window-height="1028"
     inkscape:window-x="-8"
     inkscape:window-y="-8"
     inkscape:window-maximized="1"
     inkscape:snap-page="false"
     showguides="true"
     inkscape:guide-bbox="true">
    <inkscape:grid
       type="xygrid"
       id="grid9352"
       empspacing="8" />
  </sodipodi:namedview>
  <g
     inkscape:label="Pause"
     inkscape:groupmode="layer"
     id="layer1"
     style="display:none">
    <rect
       y="0"
       x="40"
       height="64"
       width="20"
       id="rect9430"
       style="fill:#ffff00;fill-opacity:1;stroke:none;stroke-width:0.91287094;stroke-opacity:1"
       inkscape:label="right_bar" />
    <rect
       style="fill:#ffff00;fill-opacity:1;stroke:none;stroke-width:0.91287094;stroke-opacity:1"
       id="rect9375"
       width="20"
       height="64"
       x="4"
       y="0"
       inkscape:label="left_bar" />
  </g>
  <g
     inkscape:groupmode="layer"
     id="layer2"
     inkscape:label="Cinematic"
     style="display:none">
    <path
       style="display:inline;fill:#ffff00;fill-opacity:1;stroke:none;stroke-opacity:1"
       d="m 8,24 c -4.432,0 -8,3.568 -8,8 v 24 c 0,4.432 3.568,8 8,8 h 32 c 4.432,0 8,-3.568 8,-8 V 54 L 64,64 V 24 L 48,34 v -2 c 0,-4.432 -3.568,-8 -8,-8 z"
       id="rect9413"
       inkscape:connector-curvature="0"
       inkscape:label="camera" />
    <circle
       r="12"
       cy="12"
       cx="36"
       id="circle9420"
       style="display:inline;fill:#ffff00;fill-opacity:1;stroke:none;stroke-opacity:1"
       inkscape:label="circle_right" />
    <circle
       style="display:inline;fill:#ffff00;fill-opacity:1;stroke:none;stroke-opacity:1"
       id="path9418"
       cx="12"
       cy="12"
       r="12"
       inkscape:label="circle_left" />
  </g>
  <g
     inkscape:groupmode="layer"
     id="layer3"
     inkscape:label="Alien Event"
     style="display:none">
    <path
       style="display:inline;fill:#ffff00;fill-opacity:1;stroke:none;stroke-width:16;stroke-miterlimit:4;stroke-dasharray:none;stroke-opacity:1"
       d="M 32,0 24,16 8,8 16,24 0,32 16,40 8,56 24,48 32,64 40,48 56,56 48,40 64,32 48,24 56,8 40,16 Z m -6,19 h 12 l -2,17 h -8 z m 2,21 h 8 v 8 h -8 z"
       id="path859"
       inkscape:connector-curvature="0"
       sodipodi:nodetypes="ccccccccccccccccccccccccccc"
       inkscape:label="exclam_star" />
  </g>
  <g
     inkscape:groupmode="layer"
     id="layer4"
     inkscape:label="Alien Play"
     style="display:none">
    <path
       style="fill:#ffff00;fill-opacity:1;stroke:none;stroke-opacity:1"
       d="m 24,0 v 8 h -8 v 8 H 8 v 8 H 0 v 8 8 h 16 v 8 h 8 v -8 h 16 v 8 h 8 V 40 H 64 V 32 24 H 56 V 16 H 48 V 8 H 40 V 0 Z m 24,48 v 8 h 8 v -8 z m 8,8 v 8 h 8 v -8 z m -8,0 h -8 v 8 h 8 z m -8,0 V 48 H 24 v 8 z m -16,0 h -8 v 8 h 8 z m -8,0 V 48 H 8 v 8 z M 8,56 H 0 v 8 h 8 z m 8,-32 h 8 v 8 h -8 z m 24,0 h 8 v 8 h -8 z"
       id="rect9381"
       inkscape:connector-curvature="0"
       inkscape:label="space_invader" />
  </g>
  <g
     id="layer5"
     inkscape:label="Alien Reinforcement"
     style="display:none"
     inkscape:groupmode="layer">
    <rect
       style="fill:#ffff00;fill-opacity:1;stroke:none;stroke-width:4;stroke-miterlimit:4;stroke-dasharray:none;stroke-opacity:1"
       id="rect857"
       width="64"
       height="12"
       x="0"
       y="52"
       ry="6"
       rx="6"
       inkscape:label="rectangle" />
    <path
       style="display:inline;fill:#ffff00;fill-opacity:1;stroke:none;stroke-width:4.123106;stroke-miterlimit:4;stroke-dasharray:none;stroke-opacity:1"
       d="M 24,0 V 32 H 16 L 32,48 48,32 H 40 V 0 Z"
       id="rect4560"
       inkscape:connector-curvature="0"
       sodipodi:nodetypes="cccccccc"
       inkscape:label="arrow" />
  </g>
  <metadata
     id="metadata863">
    <rdf:RDF>
      <cc:Work
         rdf:about="">
        <dc:title />
        <dc:format>image/svg+xml</dc:format>
        <dc:type
           rdf:resource="http://purl.org/dc/dcmitype/StillImage" />
      </cc:Work>
    </rdf:RDF>
  </metadata>
</svg>
